<?xml version="1.0" encoding="utf-8"?>
<!-- Generator: Adobe Illustrator 20.0.0, SVG Export Plug-In . SVG Version: 6.00 Build 0)  -->
<!DOCTYPE svg PUBLIC "-//W3C//DTD SVG 1.1//EN" "http://www.w3.org/Graphics/SVG/1.1/DTD/svg11.dtd">
<svg version="1.1" id="Layer_1" xmlns="http://www.w3.org/2000/svg" xmlns:xlink="http://www.w3.org/1999/xlink" x="0px" y="0px"
	 viewBox="0 0 252 47.2" enable-background="new 0 0 252 47.2" xml:space="preserve">
<path d="M74.7,29.7C74.5,29.2,67.1,16,67.1,16s-0.2-0.4-0.7-0.4h-2.4h-2.4C61.2,15.6,61,16,61,16s-7.4,13.3-7.6,13.7
	c-0.3,0.9,0.7,0.8,0.7,0.8h3.5c0.4-0.1,0.6-0.4,0.6-0.4s0.9-1.7,1-1.9c0.3-0.3,0.7-0.3,0.7-0.3h4.2h4.2c0,0,0.4-0.1,0.7,0.3
	c0.1,0.2,1,1.9,1,1.9s0.2,0.3,0.6,0.4h3.5C73.9,30.5,74.9,30.5,74.7,29.7z M66.5,24.4h-2.4h-2.4c0,0-0.4,0-0.1-0.5
	c0.2-0.4,2.2-4.3,2.2-4.3s0.2-0.2,0.4-0.2c0.2,0,0.4,0.2,0.4,0.2s2,3.9,2.2,4.3C66.9,24.4,66.5,24.4,66.5,24.4z"/>
<path d="M77.6,30.5c-0.4,0-0.8-0.3-0.8-0.8V16.3c0-0.4,0.4-0.8,0.8-0.8h3c0.4,0,0.8,0.4,0.8,0.8v9.8c0,0.4,0.4,0.8,0.8,0.8h8.4
	c0.4,0,0.8,0.4,0.8,0.8v2.1c0,0.4-0.4,0.8-0.8,0.8H77.6z"/>
<path d="M114.6,29.7c-0.2-0.5-7.6-13.7-7.6-13.7s-0.2-0.4-0.7-0.4H104h-2.4c-0.4,0-0.7,0.4-0.7,0.4s-7.4,13.3-7.6,13.7
	c-0.3,0.9,0.7,0.8,0.7,0.8h3.5c0.4-0.1,0.6-0.4,0.6-0.4s0.9-1.7,1-1.9c0.3-0.3,0.7-0.3,0.7-0.3h4.2h4.2c0,0,0.4-0.1,0.7,0.3
	c0.1,0.2,1,1.9,1,1.9s0.2,0.3,0.6,0.4h3.5C113.9,30.5,114.9,30.5,114.6,29.7z M106.5,24.4H104h-2.4c0,0-0.4,0-0.1-0.5
	c0.2-0.4,2.2-4.3,2.2-4.3s0.2-0.2,0.4-0.2c0.2,0,0.4,0.2,0.4,0.2s2,3.9,2.2,4.3C106.9,24.4,106.5,24.4,106.5,24.4z"/>
<path d="M135,23v-4.6c0-1.6-1.3-2.9-2.9-2.9l-13.1,0v0h-1.5c-0.4,0-0.8,0.4-0.8,0.8v13.4c0,0.4,0.4,0.8,0.8,0.8h3
	c0.4,0,0.8-0.3,0.8-0.8v-2.2c0-0.4,0.3-0.8,0.8-0.8h7.6c0.4,0,0.8,0.3,0.8,0.8v2.2c0,0.4,0.4,0.8,0.8,0.8h3c0.4,0,0.8-0.3,0.8-0.8
	v-2.3c0-1.6-1.3-2.9-2.9-2.9h1.3C134.3,24.6,135,23.9,135,23z M121.4,20.3c0-0.4,0.4-0.8,0.8-0.8h7.3c0.4,0,0.8,0.3,0.8,0.8v1.9
	c0,0.4-0.4,0.8-0.8,0.8h-7.3c-0.4,0-0.8-0.3-0.8-0.8V20.3z"/>
<path d="M161.8,15.6H159h-0.5h-2.5c0,0-1.7-0.1-2.5,1.9l-2.6,6c0,0-0.4,1.1-0.7,1.1c-0.3,0-0.7-1.1-0.7-1.1l-2.6-6
	c-0.9-2-2.5-1.9-2.5-1.9h-2.5h-0.5h-2.8c-0.4,0-0.8,0.3-0.8,0.8v13.3c0,0.4,0.3,0.8,0.8,0.8h3.3c0.4,0,0.8-0.3,0.8-0.8v-9.6
	c0-0.8,0.6,0.2,0.6,0.2l4.5,8.7c0.8,1.6,1.5,1.6,1.5,1.6h1.1h1.1c0,0,0.6,0,1.5-1.6l4.5-8.7c0,0,0.6-1,0.6-0.2v9.6
	c0,0.4,0.3,0.8,0.8,0.8h3.3c0.4,0,0.8-0.3,0.8-0.8V16.3C162.6,15.9,162.3,15.6,161.8,15.6z"/>
<path d="M209.7,15.6h-6.7h0h-6.7c-1.9,0-3.4,1.5-3.5,3.4v8.1c0,1.9,1.5,3.4,3.4,3.5h6.8h0h6.8c1.9,0,3.4-1.6,3.4-3.5V19
	C213.1,17.1,211.6,15.6,209.7,15.6z M206.1,19.3c1.2,0,2.2,1,2.2,2.2v3.2c0,1.2-1,2.2-2.1,2.2h-6.4c-1.2,0-2.2-1-2.1-2.2v-3.2
	c0-1.2,1-2.2,2.2-2.2H206.1z"/>
<path d="M239.3,15.6h-2.8h-0.5h-2.5c0,0-1.7-0.1-2.5,1.9l-2.6,6c0,0-0.4,1.1-0.7,1.1c-0.3,0-0.7-1.1-0.7-1.1l-2.6-6
	c-0.9-2-2.5-1.9-2.5-1.9h-2.5h-0.5h-2.8c-0.4,0-0.8,0.3-0.8,0.8v13.3c0,0.4,0.3,0.8,0.8,0.8h3.3c0.4,0,0.8-0.3,0.8-0.8v-9.6
	c0-0.8,0.6,0.2,0.6,0.2l4.5,8.7c0.8,1.6,1.5,1.6,1.5,1.6h1.1h1.1c0,0,0.6,0,1.5-1.6l4.5-8.7c0,0,0.6-1,0.6-0.2v9.6
	c0,0.4,0.3,0.8,0.8,0.8h3.3c0.4,0,0.8-0.3,0.8-0.8V16.3C240.1,15.9,239.8,15.6,239.3,15.6z"/>
<path fill="#E4701E" d="M164.7,28c0-1.3,1.1-2.4,2.4-2.4c1.3,0,2.4,1.1,2.4,2.4c0,1.3-1.1,2.4-2.4,2.4
	C165.7,30.4,164.7,29.3,164.7,28L164.7,28z"/>
<path d="M176,20.5c0-1.3,2.1-1.4,2.1-1.4s5.3,0,6.5,0c1.2,0,1.3,0.8,1.6,1.4c0.3,0.6,0.7,0.6,0.7,0.6s1.8,0,2.8,0
	c1,0,0.9-1.4,0.9-1.4s0,0,0-1.7c0-2.5-4.3-2.5-4.3-2.5s-7,0-11,0c-4,0-4,4.5-4,4.5v6c0,0,0,4.5,4,4.5c4,0,11,0,11,0s4.3,0,4.3-2.5
	c0-1.7,0-1.7,0-1.7s0.1-1.4-0.9-1.4c-0.9,0-2.8,0-2.8,0s-0.4-0.1-0.7,0.6c-0.3,0.6-0.4,1.4-1.6,1.4c-1.2,0-6.5,0-6.5,0
	s-2.1,0-2.1-1.4V20.5z"/>
<path fill="#231F20" d="M246.2,17.9c0,1.3-1.1,2.4-2.4,2.4c-1.4,0-2.4-1.1-2.4-2.4c0-1.3,1.1-2.4,2.4-2.4
	C245.2,15.5,246.2,16.6,246.2,17.9z M245.8,17.9c0-1.1-0.9-1.9-1.9-1.9c-1.1,0-1.9,0.9-1.9,1.9c0,1.1,0.9,1.9,1.9,1.9
	C244.9,19.8,245.8,19,245.8,17.9z M244,16.8c0.5,0,0.9,0.3,0.9,0.7c0,0.4-0.3,0.6-0.7,0.7l0.8,0.9h-0.5l-0.7-0.9h-0.3V19H243v-2.3
	H244z M243.4,17.1v0.7h0.6c0.3,0,0.5-0.1,0.5-0.4c0-0.2-0.2-0.4-0.5-0.4H243.4z"/>
<g>
	<path fill="#E4701E" d="M28,14.8C28,14.8,28,14.8,28,14.8c-0.6-0.6-1.6-0.6-2.2,0c0,0,0,0,0,0L11.5,30.1l6.1-1.1c0,0,6.6-6.8,8-8.3
		c0.5-0.5,0.9-0.6,1.3-0.6c0.4,0,0.9,0.1,1.3,0.6c1.4,1.4,8,8.3,8,8.3l6.1,1.1L28,14.8z"/>
	<path d="M48.9,28.5V19c0-0.2,0-2-0.9-3.6c-1.1-1.8-2.9-2.8-2.9-2.9c-0.1,0-0.6-0.3-1.3-0.7c-3.4-1.8-11.4-6.1-13.9-7
		C28.9,4.5,28,4.3,27,4.3h-0.1c-0.9,0-1.9,0.2-2.9,0.5c-2.5,0.9-10.5,5.2-13.9,7c-0.7,0.4-1.2,0.7-1.4,0.7c-0.1,0-1.9,1.1-2.9,2.8
		C5,17,5,18.9,5,18.9l0,9.5c0,0.1-0.1,2,0.9,3.6c1.1,1.8,2.9,2.8,2.9,2.9c0.1,0.1,0.6,0.3,1.3,0.7c3.4,1.8,11.3,6.1,13.9,7
		c1,0.3,1.9,0.5,2.9,0.5H27c0.9,0,1.9-0.2,2.9-0.5c2.5-0.9,10.5-5.2,13.9-7c0.7-0.4,1.2-0.7,1.4-0.7c0.1,0,1.9-1.1,2.9-2.8
		C49,30.4,48.9,28.5,48.9,28.5z M47.4,28.5c0,0.1,0,1.6-0.7,2.7c-0.7,1.2-2.1,2.1-2.3,2.3l0,0c-0.1,0-0.2,0.1-0.5,0.2
		c-9.8,5.3-13.3,7-14.6,7.4c-0.8,0.3-1.6,0.4-2.4,0.4h-0.1c-0.8,0-1.6-0.1-2.4-0.4c-1.7-0.6-6.9-3.2-14.6-7.4
		c-0.2-0.1-0.4-0.2-0.4-0.2c-0.1,0-1.5-0.9-2.4-2.3c-0.7-1.1-0.7-2.6-0.7-2.7v-9.5c0-0.1,0-1.6,0.7-2.7c0.7-1.2,2.1-2.1,2.3-2.3l0,0
		c0.1,0,0.2-0.1,0.4-0.2c7.7-4.2,12.9-6.8,14.6-7.4c0.8-0.3,1.6-0.4,2.4-0.4H27c0.8,0,1.6,0.1,2.4,0.4c1.7,0.6,6.9,3.2,14.6,7.4
		c0.2,0.1,0.4,0.2,0.4,0.2c0.1,0,1.5,1,2.4,2.3c0.7,1.2,0.7,2.7,0.7,2.7L47.4,28.5z"/>
	<circle fill="#E4701E" cx="37.7" cy="16.7" r="2.4"/>
</g>
</svg>
